<svg version="1.1" viewBox="0.0 0.0 314.5459317585302 149.77165354330708" fill="none" stroke="none" stroke-linecap="square" stroke-miterlimit="10" xmlns:xlink="http://www.w3.org/1999/xlink" xmlns="http://www.w3.org/2000/svg"><clipPath id="p.0"><path d="m0 0l314.54593 0l0 149.77165l-314.54593 0l0 -149.77165z" clip-rule="nonzero"/></clipPath><g clip-path="url(#p.0)"><path fill="#000000" fill-opacity="0.0" d="m0 0l314.54593 0l0 149.77165l-314.54593 0z" fill-rule="evenodd"/><path fill="#000000" fill-opacity="0.0" d="m-6.52231 15.216514l327.59055 0l0 119.338585l-327.59055 0z" fill-rule="evenodd"/><path fill="#ffffff" d="m77.022934 127.54705q-1.671875 0.125 -3.015625 -0.703125q-1.34375 -0.828125 -1.859375 -2.109375q-0.765625 -0.765625 -1.671875 -2.3125q-0.890625 -1.53125 -1.140625 -2.9375q-0.515625 -6.140625 -0.515625 -8.953125q0 -3.59375 0.390625 -9.734375q0.375 -5.890625 1.46875 -11.0625q1.09375 -5.1875 3.015625 -12.75q0.765625 -2.421875 1.140625 -4.140625q0.390625 -1.734375 0 -1.734375q-0.640625 0.125 -2.3125 3.265625q-1.65625 3.125 -3.3125 6.703125q-0.765625 1.421875 -1.46875 3.015625q-0.703125 1.59375 -1.484375 3.015625q-3.578125 7.921875 -13.171875 24.0625q-1.15625 1.40625 -3.203125 4.46875q-3.96875 6.015625 -6.53125 8.328125q-3.203125 3.0625 -6.390625 3.0625q-2.3125 0 -3.84375 -1.53125q-1.6718769 -2.046875 -1.6718769 -3.96875q0 -0.515625 0.265625 -1.796875q-0.390625 -3.1875 0.6875019 -13.109375q1.09375 -9.921875 2.25 -16.578125q0.890625 -6.140625 3.96875 -20.21875l2.8125 -13.828125q0.765625 -1.921875 2.4375 -7.6875l1.15625 -4.21875q0.125 -2.296875 1.015625 -3.390625q0.890625 -1.09375 2.171875 -1.09375q1.796875 0 3.078125 1.671875q2.046875 2.296875 2.046875 5.5q0 2.5625 -1.15625 5.25q-5.75 14.078125 -9.203125 37.125q-1.28125 7.546875 -2.375 16.1875q-1.09375 8.640625 -0.578125 8.765625q1.03125 0.25 2.8125 -1.59375q1.796875 -1.859375 3.203125 -4.9375q8.703125 -14.453125 20.359375 -37.109375q0.25 -0.390625 5.625 -10.5l3.078125 -5.765625q0.375 -0.765625 0.953125 -1.71875q0.578125 -0.96875 1.21875 -1.984375q2.8125 -5.25 4.40625 -7.8125q1.609375 -2.5625 2.5 -2.953125q2.1875 0.140625 3.59375 1.109375q1.40625 0.953125 2.421875 3.25q0.140625 0.640625 -0.1875 2.109375q-0.3125 1.46875 -0.828125 2.75q-0.265625 0.765625 -1.21875 3.84375q-0.953125 3.078125 -1.59375 6.140625q-2.4375 6.40625 -3.59375 12.421875q-0.890625 4.609375 -1.921875 8.953125q-2.171875 9.859375 -3.265625 16.265625q-1.078125 6.390625 -1.203125 11.515625q-0.140625 6.53125 0.765625 8.828125q0.375 1.28125 1.921875 1.28125q1.140625 0 1.921875 -0.890625q3.703125 -4.859375 6.125 -8.578125q2.4375 -3.71875 5.265625 -8.828125q7.796875 -14.59375 18.546875 -40.0625q4.109375 -11.78125 5.578125 -15.359375q1.46875 -3.59375 3.390625 -4.609375q0.765625 -0.515625 1.53125 -0.515625q1.40625 0 2.5625 1.015625q0.515625 0.515625 0.953125 1.671875q0.453125 1.15625 0.328125 2.5625q-1.28125 4.46875 -5.953125 16.703125q-4.671875 12.21875 -7.234375 17.71875q-0.515625 0.90625 -2.046875 3.46875q-0.25 0.375 -1.09375 1.859375q-0.828125 1.46875 -0.828125 2.234375q0 1.28125 -6.71875 13.375q-6.71875 12.09375 -9.921875 16.1875q-4.21875 5.375 -8.515625 8.375q-4.28125 3.015625 -5.9375 3.015625zm58.875015 -62.84375q-0.890625 -0.890625 -1.53125 -3.0625q-0.640625 -2.1875 0 -2.1875q1.015625 -0.125 2.359375 -2.234375q1.34375 -2.109375 1.21875 -3.53125q0 -0.5 0.375 -0.953125q0.390625 -0.453125 0.90625 -0.578125q1.015625 -0.640625 1.796875 -0.640625q2.171875 0 3.96875 3.078125q0.765625 1.65625 0.765625 2.9375q0 1.15625 -0.640625 2.375q-0.640625 1.21875 -2.3125 3.125q-2.171875 2.953125 -4.09375 2.953125q-1.28125 0 -2.8125 -1.28125zm-12.421875 51.96875q-1.78125 -1.796875 -1.78125 -5.125q0 -1.796875 0.640625 -3.0625q0 -0.640625 0.25 -1.53125q0.25 -0.90625 0.25 -1.15625q-0.125 -0.78125 1.03125 -4.234375q2.296875 -5.109375 6.140625 -18.046875q0 -0.640625 0.515625 -1.078125q0.515625 -0.453125 1.53125 -0.578125q1.03125 -0.265625 1.40625 -0.265625q0.765625 0 1.34375 0.578125q0.578125 0.578125 1.609375 2.109375q0.765625 0.765625 0.765625 2.3125q0 2.421875 -1.671875 5.890625q-1.65625 3.703125 -2.171875 6.390625q-1.53125 3.453125 -2.4375 6.40625q-0.25 0.765625 -0.765625 3.078125q-0.5 2.296875 -1.40625 3.703125q-0.765625 3.578125 -1.40625 5.0q-0.640625 1.40625 -1.40625 1.40625q-0.890625 0 -2.4375 -1.796875zm26.373505 4.09375q-0.390625 0.125 -1.28125 0.125q-2.046875 0 -3.203125 -2.046875q-1.140625 -2.046875 -1.140625 -5.625q0 -2.953125 0.765625 -6.796875q1.40625 -3.703125 1.40625 -5.375q0.375 -2.421875 2.609375 -8.75q2.25 -6.34375 2.890625 -7.625q0.515625 0 0.890625 -0.828125q0.390625 -0.84375 0.390625 -1.859375q0 -1.15625 0.4375 -2.375q0.453125 -1.21875 0.96875 -1.71875q0 -0.390625 0.3125 -1.40625q0.328125 -1.03125 0.328125 -1.421875q0 -0.25 0.3125 -0.953125q0.328125 -0.703125 0.328125 -1.09375q2.046875 -3.96875 7.15625 -17.84375q5.125 -13.890625 5.125 -15.4375q0 -2.046875 2.046875 -2.046875q0.640625 -0.640625 2.0625 -0.640625l2.046875 2.0625q0.890625 0.890625 1.140625 1.859375q0.265625 0.953125 0.265625 2.875q0 1.90625 -0.515625 3.328125q-0.515625 1.40625 -2.5625 5.75q-0.375 0.90625 -1.015625 2.125q-0.640625 1.203125 -1.421875 3.0q-0.25 0.640625 -2.046875 4.609375q-1.28125 2.5625 -1.28125 2.9375q0 0.390625 -0.515625 1.609375q-0.5 1.203125 -0.890625 2.484375q-1.015625 2.046875 -3.265625 7.234375q-2.234375 5.1875 -2.234375 5.703125q0 1.40625 -0.640625 2.046875q-0.375 0 -0.515625 0.578125q-0.125 0.578125 -0.125 0.828125q0 1.28125 -2.046875 6.78125l-1.15625 3.71875q-2.421875 8.3125 -3.390625 12.15625q-0.953125 3.84375 -0.953125 6.53125q0 3.203125 -0.203125 4.09375q-0.1875 0.890625 -1.078125 1.40625zm28.038254 -1.03125q-4.359375 0 -7.5625 -1.78125q-3.203125 -1.796875 -4.21875 -4.875q-0.890625 -2.296875 -0.890625 -2.546875q0 -0.78125 0.890625 -1.15625q0.890625 0 2.109375 0.765625q1.21875 0.765625 1.984375 1.03125q1.921875 1.78125 5.25 1.78125q2.5625 0 4.671875 -1.015625q2.109375 -1.03125 2.359375 -2.4375q0 -0.640625 -1.265625 -4.484375q-3.203125 -4.609375 -4.9375 -9.40625q-1.71875 -4.796875 -1.71875 -8.125q0 -2.4375 1.40625 -4.984375q1.40625 -2.5625 3.828125 -4.359375q3.203125 -3.328125 7.75 -6.015625q4.546875 -2.6875 8.25 -3.71875q1.546875 0 3.78125 0.390625q2.234375 0.390625 3.140625 0.890625q1.40625 0.515625 2.6875 2.828125q1.28125 2.296875 1.28125 4.34375q0 2.046875 -2.1875 5.640625q-0.25 0.890625 -1.015625 2.4375q-0.765625 1.53125 -0.765625 1.90625q-0.515625 1.28125 -1.671875 1.28125q-1.140625 0 -2.234375 -1.078125q-1.09375 -1.09375 -1.734375 -2.640625q-0.375 -1.53125 -0.375 -2.6875q0 -1.53125 1.015625 -3.0625q1.40625 -1.40625 1.40625 -1.921875q0 -0.515625 -1.40625 -0.515625q-1.53125 0 -5.890625 2.4375q-4.34375 2.421875 -6.90625 5.125q-2.296875 2.171875 -2.8125 3.265625q-0.515625 1.078125 -0.515625 3.25q0 1.921875 0.828125 4.546875q0.84375 2.625 1.734375 3.515625q0.25 0.515625 1.078125 2.1875q0.84375 1.65625 2.0 3.1875q2.546875 5.765625 2.546875 8.96875q0 3.703125 -2.875 5.375q-2.875 1.65625 -9.015625 1.65625zm46.83551 -3.828125q-1.921875 0.375 -2.8125 0.375q-0.765625 0 -1.28125 -0.3125q-0.515625 -0.328125 -1.40625 -1.21875q-2.8125 -1.40625 -4.421875 -4.03125q-1.59375 -2.625 -1.34375 -4.671875q0.515625 -5.890625 3.390625 -12.921875q2.890625 -7.046875 6.859375 -12.421875q3.96875 -5.375 7.671875 -6.65625q2.3125 -0.890625 3.84375 -0.890625q3.078125 0 4.359375 2.546875q0.890625 1.796875 0.890625 2.6875q0 1.546875 -1.796875 2.0625q-0.375 0 -0.890625 0.390625q-0.515625 0.375 -0.515625 0.75q0.125 0.125 1.15625 0.125q2.171875 0 5.375 -0.625q3.203125 -0.640625 4.09375 -1.421875q0.765625 -0.375 1.28125 -0.375l1.7968903 0.25q2.171875 0.640625 2.171875 1.53125q0 0.515625 0.375 0.96875q0.390625 0.453125 0.90625 0.453125q0.765625 0.125 -0.203125 1.015625q-0.953125 0.890625 -3.640625 2.953125q-0.640625 0.375 -1.8593903 1.140625q-1.203125 0.765625 -1.40625 1.28125q-0.1875 0.515625 0.0625 1.40625q0.515625 1.15625 0.515625 2.828125q0 4.21875 -3.65625 9.34375q-3.640625 5.109375 -9.078125 8.953125q-5.4375 3.84375 -10.4375 4.484375zm-2.171875 -5.640625q0.765625 0 3.84375 -1.53125q1.65625 -1.671875 2.6875 -2.046875q0.890625 0 2.421875 -1.34375q1.546875 -1.34375 4.75 -5.4375q2.421875 -2.828125 3.640625 -4.734375q1.21875 -1.921875 1.21875 -3.71875q0 -0.765625 -0.125 -1.15625q-0.125 -0.375 -0.84375 -0.6875q-0.703125 -0.328125 -1.34375 -0.59375q-1.140625 0 -2.109375 -0.5625q-0.953125 -0.578125 -2.75 -1.984375l-2.046875 -2.5625l-2.171875 2.171875q-3.078125 3.078125 -6.28125 10.0625q-3.1875 6.96875 -3.578125 10.796875q-0.125 1.796875 0.578125 2.5q0.703125 0.703125 2.109375 0.828125zm40.059006 4.875q-0.375 0 -1.34375 -0.640625q-0.953125 -0.640625 -1.59375 -1.28125q-0.890625 -0.90625 -1.09375 -1.921875q-0.1875 -1.03125 -0.1875 -4.734375q0 -3.96875 1.59375 -8.703125q1.609375 -4.734375 5.703125 -13.703125l4.21875 -8.953125q0.390625 -0.90625 1.796875 -2.5625l1.28125 0q0.890625 0 1.984375 1.15625q1.09375 1.140625 1.59375 2.6875q0 2.046875 -0.578125 3.84375q-0.5625 1.78125 -3.0 4.984375q-1.03125 1.53125 -2.4375 4.859375q-1.40625 3.328125 -1.921875 5.640625q-0.375 0.640625 -0.953125 2.171875q-0.578125 1.53125 -1.34375 3.203125l-0.640625 2.8125l8.578125 -8.828125q5.625 -5.640625 9.140625 -8.203125q3.53125 -2.5625 5.828125 -2.5625q2.6875 0 4.359375 3.46875q1.15625 1.921875 1.53125 3.015625q0.390625 1.078125 0.390625 3.375q0 0.765625 -0.265625 4.359375l0 7.9375q1.796875 -0.390625 3.265625 -1.03125q1.46875 -0.640625 2.25 -0.890625q2.9375 -1.28125 6.515625 -1.53125q-0.25 2.171875 -1.921875 4.734375q-1.65625 2.546875 -4.09375 4.28125q-2.421875 1.734375 -4.734375 1.734375q-1.78125 0 -3.765625 -1.65625q-1.984375 -1.671875 -2.890625 -3.71875q-0.5 -1.421875 -0.578125 -3.46875q-0.0625 -2.046875 -0.0625 -5.75l0 -4.734375q0 -1.28125 -0.765625 -1.28125q-0.515625 0 -2.421875 1.53125q-2.5625 2.296875 -8.328125 8.328125q-5.5 5.75 -9.53125 8.890625q-4.03125 3.140625 -5.578125 3.140625z" fill-rule="nonzero"/></g></svg>